<svg width="322" height="64" viewBox="0 0 322 64" fill="none" xmlns="http://www.w3.org/2000/svg">
<path d="M70.2103 55.8184V32.6088H78.8435V25.6021H70.2103V24.5386C70.2103 18.7831 73.2131 15.8428 79.2189 15.8428C79.6568 15.8428 80.0321 15.8428 80.4075 15.9054C80.7828 15.968 81.1582 16.0931 81.5961 16.1556V8.89874C81.1582 8.83618 80.6577 8.71106 80.2198 8.6485C79.7819 8.58594 79.2814 8.58594 78.8435 8.58594C69.397 8.58594 62.7031 14.7793 62.7031 24.6012V55.8184H70.2103ZM98.7179 55.8184C108.032 55.8184 114.659 49.442 114.659 39.8774C114.659 30.5629 108.407 23.9365 98.7179 23.9365C89.4034 23.9365 82.7769 30.2504 82.7769 39.8774C82.7769 49.1295 89.1533 55.8184 98.7179 55.8184ZM98.1275 48.7335C92.8007 48.7335 89.8618 45.3273 89.8618 39.8774C89.8618 34.6753 92.5558 31.0214 98.1275 31.0214C103.577 31.0214 106.393 34.2418 106.393 39.8774C106.393 45.1416 103.822 48.7335 98.1275 48.7335ZM126.889 55.8184V40.0353C126.889 34.2271 129.892 31.2599 135.898 31.2599C136.336 31.2599 136.711 31.2599 137.086 31.323C137.462 31.3861 137.837 31.5124 138.275 31.5755V24.2522C137.837 24.189 137.337 24.0628 136.899 23.9996C136.461 23.9365 135.96 23.9365 135.522 23.9365C126.076 23.9365 119.382 30.1866 119.382 40.0984V55.8184H126.889ZM149.266 55.8184V38.7726C149.266 34.4165 151.128 31.0073 155.783 31.0073C160.5 31.0073 162.3 34.3534 162.3 38.7726V55.8184H169.748V38.7726C169.748 34.4165 171.61 31.0073 176.265 31.0073C180.983 31.0073 182.783 34.3534 182.783 38.7726V55.8184H190.231V38.7726C190.231 30.376 185.017 23.9365 176.265 23.9365C171.734 23.9365 168.134 26.2093 166.024 30.3129C163.914 26.1461 160.376 23.9365 155.783 23.9365C147.342 23.9365 141.818 30.1235 141.818 38.7726V55.8184H149.266ZM230.583 55.8184C239.521 55.8184 244.548 48.495 244.548 39.7196C244.548 34.5428 244.3 28.6714 242.065 23.9365H234.617C236.852 28.6714 237.1 34.6059 237.1 39.7196C237.1 44.1389 235.672 48.7476 230.583 48.7476C225.99 48.7476 224.066 45.2121 224.066 40.9823V23.9365H216.617V40.9823C216.617 45.3384 214.755 48.7476 210.1 48.7476C205.507 48.7476 203.583 45.2121 203.583 40.9823V23.9365H196.135V40.9823C196.135 49.3158 201.411 55.8184 210.1 55.8184C214.631 55.8184 218.293 53.5456 220.341 49.442C222.39 53.4825 226.114 55.8184 230.583 55.8184ZM252.845 20.3941C255.623 20.3941 257.537 18.4183 257.537 15.6399C257.537 12.7998 255.623 10.9476 252.845 10.9476C250.066 10.9476 248.091 12.8616 248.091 15.6399C248.091 18.4183 250.128 20.3941 252.845 20.3941ZM256.356 54.6376V23.9365H249.271V54.6376H256.356ZM289.419 54.6376V47.8834H271.457L288.184 30.6907V23.9365H263.495V30.6907H278.988L262.26 47.8834V54.6376H289.419ZM308.044 55.8184C311.442 55.8184 314.719 55.2569 317.996 54.4458V47.3956C317.45 47.5828 316.722 47.7699 315.933 47.8947C315.144 48.0819 314.294 48.2067 313.384 48.2691C312.474 48.3315 311.624 48.3939 310.775 48.4562C309.925 48.5186 309.197 48.581 308.529 48.581C304.342 48.581 300.276 47.3956 299.305 42.6539C301.733 43.8393 304.585 44.5256 307.255 44.5256C313.323 44.5256 320.12 41.4684 320.12 34.231C320.12 27.1184 313.445 23.9365 307.255 23.9365C298.152 23.9365 291.781 30.3004 291.781 39.971C291.781 49.8288 298.395 55.8184 308.044 55.8184ZM307.598 36.9254C305.061 36.9254 302.402 36.4435 300.046 35.5398C301.375 32.166 304.336 31.0214 307.779 31.0214C309.41 31.0214 310.679 31.2623 311.646 31.7443C312.552 32.2865 313.035 33.0095 313.035 33.9734C313.035 36.5037 309.471 36.9254 307.598 36.9254Z" fill="white"/>
<path fill-rule="evenodd" clip-rule="evenodd" d="M24.4227 63.6885L24.4239 63.6842L24.2118 63.3374C20.4619 57.0678 23.0464 51.176 31.9652 45.6621L32.4633 45.3585L32.4672 45.3562L32.4639 45.362L32.6781 45.7072C36.428 51.9768 33.8435 57.8686 24.9247 63.3825L24.4266 63.6861L24.4227 63.6885Z" fill="url(#paint0_linear_64_65)"/>
<path d="M6.79143 33.8644L6.79689 33.8575L6.56106 33.4802C2.32419 26.5316 4.76234 20.3194 13.8755 14.8437L38.0229 0.334459L38.0157 0.340697L38.2532 0.718623C42.4901 7.66725 40.052 13.8794 30.9388 19.3552L6.79143 33.8644Z" fill="#D8D8D8"/>
<path d="M6.79143 33.8644L6.79689 33.8575L6.56106 33.4802C2.32419 26.5316 4.76234 20.3194 13.8755 14.8437L38.0229 0.334459L38.0157 0.340697L38.2532 0.718623C42.4901 7.66725 40.052 13.8794 30.9388 19.3552L6.79143 33.8644Z" fill="url(#paint1_linear_64_65)"/>
<path d="M15.5012 48.7722L15.5041 48.7675L15.2554 48.3629C11.1764 41.6236 12.5483 36.2042 19.371 32.1047L37.4815 21.2228L37.476 21.228L37.7273 21.632C41.8063 28.3714 40.4344 33.7908 33.6117 37.8903L15.5012 48.7722Z" fill="#D8D8D8"/>
<path d="M15.5012 48.7722L15.5041 48.7675L15.2554 48.3629C11.1764 41.6236 12.5483 36.2042 19.371 32.1047L37.4815 21.2228L37.476 21.228L37.7273 21.632C41.8063 28.3714 40.4344 33.7908 33.6117 37.8903L15.5012 48.7722Z" fill="url(#paint2_linear_64_65)"/>
<defs>
<linearGradient id="paint0_linear_64_65" x1="1587.04" y1="-213.789" x2="316.429" y2="549.669" gradientUnits="userSpaceOnUse">
<stop stop-color="#00B6F2"/>
<stop offset="1" stop-color="#0093F0"/>
</linearGradient>
<linearGradient id="paint1_linear_64_65" x1="3751.29" y1="-1492.61" x2="326.173" y2="565.405" gradientUnits="userSpaceOnUse">
<stop stop-color="#00B6F2"/>
<stop offset="1" stop-color="#0093F0"/>
</linearGradient>
<linearGradient id="paint2_linear_64_65" x1="2894.59" y1="-978.386" x2="325.758" y2="565.126" gradientUnits="userSpaceOnUse">
<stop stop-color="#00B6F2"/>
<stop offset="1" stop-color="#0093F0"/>
</linearGradient>
</defs>
</svg>
