<svg width="189" height="51" viewBox="0 0 189 51" fill="none" xmlns="http://www.w3.org/2000/svg">
<g clip-path="url(#clip0_65_74)">
<path d="M19.8319 50.6937C24.042 50.6937 29.5293 50.1523 36.2938 49.0695V24.1423H22.2444V32.6161H26.6437V41.9374L20.7543 42.2198C16.4496 42.2198 13.6114 41.1135 12.2395 38.9009C10.8677 36.6883 10.1818 32.8162 10.1818 27.2847C10.1818 21.7531 10.5248 17.8457 11.2107 15.5625C11.8966 13.2793 12.9728 11.714 14.4392 10.8666C15.9056 10.0192 18.4482 9.59554 22.067 9.59554C25.6858 9.59554 30.3335 9.90154 36.01 10.5135L36.2938 2.9577L33.7394 2.46339C28.6305 1.47477 23.8764 0.980469 19.4771 0.980469C12.4288 0.980469 7.43813 2.91062 4.50526 6.77093C1.57239 10.6312 0.105957 16.916 0.105957 25.6252C0.105957 34.3344 1.51326 40.6898 4.32787 44.6914C7.14248 48.6929 12.3105 50.6937 19.8319 50.6937ZM56.8002 50.6937C59.3074 50.6937 62.2639 49.7521 65.6698 47.869V49.8463H75.107V14.5386H65.5988V40.9487L64.6764 41.2312C62.8315 41.8903 60.8684 42.2198 58.787 42.2198C56.611 42.2198 55.2392 41.5843 54.6715 40.3132C54.1039 39.0421 53.8201 36.6647 53.8201 33.1811V14.5386H44.3119V33.0398C44.3119 39.3952 45.1634 43.9264 46.8663 46.6333C48.5693 49.3402 51.8806 50.6937 56.8002 50.6937Z" fill="white"/>
<path d="M93.4139 10.0187V0.415039H83.9058V10.0187H93.4139ZM93.4139 49.8458V14.5381H83.9058V49.8458H93.4139Z" fill="#E0BD27"/>
<path d="M111.721 10.0187V0.415039H102.213V10.0187H111.721ZM111.721 49.8458V14.5381H102.213V49.8458H111.721Z" fill="#BD4932"/>
<path d="M132.653 50.6931C135.065 50.6931 137.927 49.9164 141.239 48.3628V49.8458H150.676V0.415039H141.168V14.6793L139.82 14.3968C137.123 13.9261 135.018 13.6907 133.504 13.6907C128.585 13.6907 124.907 15.1618 122.471 18.1042C120.034 21.0465 118.816 25.7306 118.816 32.1566C118.816 38.5826 119.833 43.2785 121.868 46.2444C123.902 49.2102 127.497 50.6931 132.653 50.6931ZM133.966 42.2193C132.002 42.2193 130.595 41.4425 129.744 39.889C128.892 38.3355 128.466 35.7227 128.466 32.0507C128.466 25.2716 130.382 21.8821 134.214 21.8821C136.248 21.8821 138.566 22.1175 141.168 22.5882V41.1601L140.174 41.3719C137.998 41.9368 135.929 42.2193 133.966 42.2193ZM172.956 50.6931C177.356 50.6931 182.275 50.0341 187.715 48.7159L187.573 41.725L185.586 41.9368C182.133 42.2193 178.207 42.3605 173.808 42.3605C171.726 42.3605 170.13 41.878 169.018 40.9129C167.906 39.9478 167.327 38.3825 167.28 36.217H188.141L188.85 29.6498C188.85 19.0104 183.694 13.6907 173.382 13.6907C162.928 13.6907 157.701 20.0225 157.701 32.6862C157.701 39.0416 158.907 43.6316 161.319 46.4562C163.732 49.2808 167.611 50.6931 172.956 50.6931ZM179.484 29.0142H167.209C167.256 26.2838 167.741 24.3418 168.663 23.1885C169.586 22.0351 171.17 21.4584 173.417 21.4584C175.664 21.4584 177.237 22.0115 178.136 23.1178C179.035 24.2242 179.484 26.1896 179.484 29.0142Z" fill="white"/>
</g>
<defs>
<clipPath id="clip0_65_74">
<rect width="189" height="51" fill="white"/>
</clipPath>
</defs>
</svg>
