<svg width="335" height="78" viewBox="0 0 335 78" fill="none" xmlns="http://www.w3.org/2000/svg">
<g clip-path="url(#clip0_67_82)">
<path d="M77 1H0V78H77V1Z" fill="#FFC502"/>
<path d="M18 42.1339C18 42.1339 37.3159 73.849 59.2182 42" stroke="white" stroke-width="8"/>
</g>
<path d="M114.368 72.144C113.12 72.144 111.92 71.944 110.768 71.544C109.632 71.144 108.752 70.616 108.128 69.96L108.824 68.592C109.432 69.2 110.24 69.696 111.248 70.08C112.256 70.448 113.296 70.632 114.368 70.632C115.872 70.632 117 70.36 117.752 69.816C118.504 69.256 118.88 68.536 118.88 67.656C118.88 66.984 118.672 66.448 118.256 66.048C117.856 65.648 117.36 65.344 116.768 65.136C116.176 64.912 115.352 64.672 114.296 64.416C113.032 64.096 112.024 63.792 111.272 63.504C110.52 63.2 109.872 62.744 109.328 62.136C108.8 61.528 108.536 60.704 108.536 59.664C108.536 58.816 108.76 58.048 109.208 57.36C109.656 56.656 110.344 56.096 111.272 55.68C112.2 55.264 113.352 55.056 114.728 55.056C115.688 55.056 116.624 55.192 117.536 55.464C118.464 55.72 119.264 56.08 119.936 56.544L119.336 57.96C118.632 57.496 117.88 57.152 117.08 56.928C116.28 56.688 115.496 56.568 114.728 56.568C113.256 56.568 112.144 56.856 111.392 57.432C110.656 57.992 110.288 58.72 110.288 59.616C110.288 60.288 110.488 60.832 110.888 61.248C111.304 61.648 111.816 61.96 112.424 62.184C113.048 62.392 113.88 62.624 114.92 62.88C116.152 63.184 117.144 63.488 117.896 63.792C118.664 64.08 119.312 64.528 119.84 65.136C120.368 65.728 120.632 66.536 120.632 67.56C120.632 68.408 120.4 69.184 119.936 69.888C119.488 70.576 118.792 71.128 117.848 71.544C116.904 71.944 115.744 72.144 114.368 72.144ZM129.374 72.12C128.126 72.12 127.006 71.848 126.014 71.304C125.038 70.76 124.27 70 123.71 69.024C123.15 68.032 122.87 66.92 122.87 65.688C122.87 64.456 123.15 63.352 123.71 62.376C124.27 61.4 125.038 60.64 126.014 60.096C127.006 59.552 128.126 59.28 129.374 59.28C130.462 59.28 131.43 59.496 132.278 59.928C133.142 60.344 133.822 60.96 134.318 61.776L133.046 62.64C132.63 62.016 132.102 61.552 131.462 61.248C130.822 60.928 130.126 60.768 129.374 60.768C128.462 60.768 127.638 60.976 126.902 61.392C126.182 61.792 125.614 62.368 125.198 63.12C124.798 63.872 124.598 64.728 124.598 65.688C124.598 66.664 124.798 67.528 125.198 68.28C125.614 69.016 126.182 69.592 126.902 70.008C127.638 70.408 128.462 70.608 129.374 70.608C130.126 70.608 130.822 70.456 131.462 70.152C132.102 69.848 132.63 69.384 133.046 68.76L134.318 69.624C133.822 70.44 133.142 71.064 132.278 71.496C131.414 71.912 130.446 72.12 129.374 72.12ZM143.91 59.28C145.494 59.28 146.75 59.744 147.678 60.672C148.622 61.584 149.094 62.92 149.094 64.68V72H147.39V64.848C147.39 63.536 147.062 62.536 146.406 61.848C145.75 61.16 144.814 60.816 143.598 60.816C142.238 60.816 141.158 61.224 140.358 62.04C139.574 62.84 139.182 63.952 139.182 65.376V72H137.478V54.192H139.182V61.584C139.646 60.848 140.286 60.28 141.102 59.88C141.918 59.48 142.854 59.28 143.91 59.28ZM158.927 72.12C157.711 72.12 156.615 71.848 155.639 71.304C154.663 70.744 153.895 69.976 153.335 69C152.775 68.024 152.495 66.92 152.495 65.688C152.495 64.456 152.775 63.352 153.335 62.376C153.895 61.4 154.663 60.64 155.639 60.096C156.615 59.552 157.711 59.28 158.927 59.28C160.143 59.28 161.239 59.552 162.215 60.096C163.191 60.64 163.951 61.4 164.495 62.376C165.055 63.352 165.335 64.456 165.335 65.688C165.335 66.92 165.055 68.024 164.495 69C163.951 69.976 163.191 70.744 162.215 71.304C161.239 71.848 160.143 72.12 158.927 72.12ZM158.927 70.608C159.823 70.608 160.623 70.408 161.327 70.008C162.047 69.592 162.607 69.008 163.007 68.256C163.407 67.504 163.607 66.648 163.607 65.688C163.607 64.728 163.407 63.872 163.007 63.12C162.607 62.368 162.047 61.792 161.327 61.392C160.623 60.976 159.823 60.768 158.927 60.768C158.031 60.768 157.223 60.976 156.503 61.392C155.799 61.792 155.239 62.368 154.823 63.12C154.423 63.872 154.223 64.728 154.223 65.688C154.223 66.648 154.423 67.504 154.823 68.256C155.239 69.008 155.799 69.592 156.503 70.008C157.223 70.408 158.031 70.608 158.927 70.608ZM173.974 72.12C172.758 72.12 171.662 71.848 170.686 71.304C169.71 70.744 168.942 69.976 168.382 69C167.822 68.024 167.542 66.92 167.542 65.688C167.542 64.456 167.822 63.352 168.382 62.376C168.942 61.4 169.71 60.64 170.686 60.096C171.662 59.552 172.758 59.28 173.974 59.28C175.19 59.28 176.286 59.552 177.262 60.096C178.238 60.64 178.998 61.4 179.542 62.376C180.102 63.352 180.382 64.456 180.382 65.688C180.382 66.92 180.102 68.024 179.542 69C178.998 69.976 178.238 70.744 177.262 71.304C176.286 71.848 175.19 72.12 173.974 72.12ZM173.974 70.608C174.87 70.608 175.67 70.408 176.374 70.008C177.094 69.592 177.654 69.008 178.054 68.256C178.454 67.504 178.654 66.648 178.654 65.688C178.654 64.728 178.454 63.872 178.054 63.12C177.654 62.368 177.094 61.792 176.374 61.392C175.67 60.976 174.87 60.768 173.974 60.768C173.078 60.768 172.27 60.976 171.55 61.392C170.846 61.792 170.286 62.368 169.87 63.12C169.47 63.872 169.27 64.728 169.27 65.688C169.27 66.648 169.47 67.504 169.87 68.256C170.286 69.008 170.846 69.592 171.55 70.008C172.27 70.408 173.078 70.608 173.974 70.608ZM183.86 54.192H185.564V72H183.86V54.192ZM201.747 72.12C200.531 72.12 199.435 71.848 198.459 71.304C197.483 70.744 196.715 69.976 196.155 69C195.595 68.024 195.315 66.92 195.315 65.688C195.315 64.456 195.595 63.352 196.155 62.376C196.715 61.4 197.483 60.64 198.459 60.096C199.435 59.552 200.531 59.28 201.747 59.28C202.963 59.28 204.059 59.552 205.035 60.096C206.011 60.64 206.771 61.4 207.315 62.376C207.875 63.352 208.155 64.456 208.155 65.688C208.155 66.92 207.875 68.024 207.315 69C206.771 69.976 206.011 70.744 205.035 71.304C204.059 71.848 202.963 72.12 201.747 72.12ZM201.747 70.608C202.643 70.608 203.443 70.408 204.147 70.008C204.867 69.592 205.427 69.008 205.827 68.256C206.227 67.504 206.427 66.648 206.427 65.688C206.427 64.728 206.227 63.872 205.827 63.12C205.427 62.368 204.867 61.792 204.147 61.392C203.443 60.976 202.643 60.768 201.747 60.768C200.851 60.768 200.043 60.976 199.323 61.392C198.619 61.792 198.059 62.368 197.643 63.12C197.243 63.872 197.043 64.728 197.043 65.688C197.043 66.648 197.243 67.504 197.643 68.256C198.059 69.008 198.619 69.592 199.323 70.008C200.043 70.408 200.851 70.608 201.747 70.608ZM215.81 55.512C215.074 55.512 214.514 55.712 214.13 56.112C213.762 56.512 213.578 57.104 213.578 57.888V59.376H217.466V60.816H213.626V72H211.922V60.816H209.666V59.376H211.922V57.816C211.922 56.664 212.25 55.752 212.906 55.08C213.578 54.408 214.522 54.072 215.738 54.072C216.218 54.072 216.682 54.144 217.13 54.288C217.578 54.416 217.954 54.608 218.258 54.864L217.682 56.136C217.186 55.72 216.562 55.512 215.81 55.512ZM243.856 55.2V72H242.152V58.56L235.552 69.864H234.712L228.112 58.632V72H226.408V55.2H227.872L235.168 67.656L242.392 55.2H243.856ZM254.13 72.12C252.914 72.12 251.818 71.848 250.842 71.304C249.866 70.744 249.098 69.976 248.538 69C247.978 68.024 247.698 66.92 247.698 65.688C247.698 64.456 247.978 63.352 248.538 62.376C249.098 61.4 249.866 60.64 250.842 60.096C251.818 59.552 252.914 59.28 254.13 59.28C255.346 59.28 256.442 59.552 257.418 60.096C258.394 60.64 259.154 61.4 259.698 62.376C260.258 63.352 260.538 64.456 260.538 65.688C260.538 66.92 260.258 68.024 259.698 69C259.154 69.976 258.394 70.744 257.418 71.304C256.442 71.848 255.346 72.12 254.13 72.12ZM254.13 70.608C255.026 70.608 255.826 70.408 256.53 70.008C257.25 69.592 257.81 69.008 258.21 68.256C258.61 67.504 258.81 66.648 258.81 65.688C258.81 64.728 258.61 63.872 258.21 63.12C257.81 62.368 257.25 61.792 256.53 61.392C255.826 60.976 255.026 60.768 254.13 60.768C253.234 60.768 252.426 60.976 251.706 61.392C251.002 61.792 250.442 62.368 250.026 63.12C249.626 63.872 249.426 64.728 249.426 65.688C249.426 66.648 249.626 67.504 250.026 68.256C250.442 69.008 251.002 69.592 251.706 70.008C252.426 70.408 253.234 70.608 254.13 70.608ZM270.665 71.232C270.345 71.52 269.945 71.744 269.465 71.904C269.001 72.048 268.513 72.12 268.001 72.12C266.817 72.12 265.905 71.8 265.265 71.16C264.625 70.52 264.305 69.616 264.305 68.448V60.816H262.049V59.376H264.305V56.616H266.009V59.376H269.849V60.816H266.009V68.352C266.009 69.104 266.193 69.68 266.561 70.08C266.945 70.464 267.489 70.656 268.193 70.656C268.545 70.656 268.881 70.6 269.201 70.488C269.537 70.376 269.825 70.216 270.065 70.008L270.665 71.232ZM278.481 72.12C277.265 72.12 276.169 71.848 275.193 71.304C274.217 70.744 273.449 69.976 272.889 69C272.329 68.024 272.049 66.92 272.049 65.688C272.049 64.456 272.329 63.352 272.889 62.376C273.449 61.4 274.217 60.64 275.193 60.096C276.169 59.552 277.265 59.28 278.481 59.28C279.697 59.28 280.793 59.552 281.769 60.096C282.745 60.64 283.505 61.4 284.049 62.376C284.609 63.352 284.889 64.456 284.889 65.688C284.889 66.92 284.609 68.024 284.049 69C283.505 69.976 282.745 70.744 281.769 71.304C280.793 71.848 279.697 72.12 278.481 72.12ZM278.481 70.608C279.377 70.608 280.177 70.408 280.881 70.008C281.601 69.592 282.161 69.008 282.561 68.256C282.961 67.504 283.161 66.648 283.161 65.688C283.161 64.728 282.961 63.872 282.561 63.12C282.161 62.368 281.601 61.792 280.881 61.392C280.177 60.976 279.377 60.768 278.481 60.768C277.585 60.768 276.777 60.976 276.057 61.392C275.353 61.792 274.793 62.368 274.377 63.12C273.977 63.872 273.777 64.728 273.777 65.688C273.777 66.648 273.977 67.504 274.377 68.256C274.793 69.008 275.353 69.592 276.057 70.008C276.777 70.408 277.585 70.608 278.481 70.608ZM290 61.848C290.4 61 290.992 60.36 291.776 59.928C292.576 59.496 293.56 59.28 294.728 59.28V60.936L294.32 60.912C292.992 60.912 291.952 61.32 291.2 62.136C290.448 62.952 290.072 64.096 290.072 65.568V72H288.368V59.376H290V61.848ZM297.814 59.376H299.518V72H297.814V59.376ZM298.678 56.616C298.326 56.616 298.03 56.496 297.79 56.256C297.55 56.016 297.43 55.728 297.43 55.392C297.43 55.072 297.55 54.792 297.79 54.552C298.03 54.312 298.326 54.192 298.678 54.192C299.03 54.192 299.326 54.312 299.566 54.552C299.806 54.776 299.926 55.048 299.926 55.368C299.926 55.72 299.806 56.016 299.566 56.256C299.326 56.496 299.03 56.616 298.678 56.616ZM310.691 59.28C312.275 59.28 313.531 59.744 314.459 60.672C315.403 61.584 315.875 62.92 315.875 64.68V72H314.171V64.848C314.171 63.536 313.843 62.536 313.187 61.848C312.531 61.16 311.595 60.816 310.379 60.816C309.019 60.816 307.939 61.224 307.139 62.04C306.355 62.84 305.963 63.952 305.963 65.376V72H304.259V59.376H305.891V61.704C306.355 60.936 306.995 60.344 307.811 59.928C308.643 59.496 309.603 59.28 310.691 59.28ZM332.236 59.376V70.464C332.236 72.608 331.708 74.192 330.652 75.216C329.612 76.256 328.036 76.776 325.924 76.776C324.756 76.776 323.644 76.6 322.588 76.248C321.548 75.912 320.7 75.44 320.044 74.832L320.908 73.536C321.516 74.08 322.252 74.504 323.116 74.808C323.996 75.112 324.916 75.264 325.876 75.264C327.476 75.264 328.652 74.888 329.404 74.136C330.156 73.4 330.532 72.248 330.532 70.68V69.072C330.004 69.872 329.308 70.48 328.444 70.896C327.596 71.312 326.652 71.52 325.612 71.52C324.428 71.52 323.348 71.264 322.372 70.752C321.412 70.224 320.652 69.496 320.092 68.568C319.548 67.624 319.276 66.56 319.276 65.376C319.276 64.192 319.548 63.136 320.092 62.208C320.652 61.28 321.412 60.56 322.372 60.048C323.332 59.536 324.412 59.28 325.612 59.28C326.684 59.28 327.652 59.496 328.516 59.928C329.38 60.36 330.076 60.984 330.604 61.8V59.376H332.236ZM325.78 70.008C326.692 70.008 327.516 69.816 328.252 69.432C328.988 69.032 329.556 68.48 329.956 67.776C330.372 67.072 330.58 66.272 330.58 65.376C330.58 64.48 330.372 63.688 329.956 63C329.556 62.296 328.988 61.752 328.252 61.368C327.532 60.968 326.708 60.768 325.78 60.768C324.868 60.768 324.044 60.96 323.308 61.344C322.588 61.728 322.02 62.272 321.604 62.976C321.204 63.68 321.004 64.48 321.004 65.376C321.004 66.272 321.204 67.072 321.604 67.776C322.02 68.48 322.588 69.032 323.308 69.432C324.044 69.816 324.868 70.008 325.78 70.008Z" fill="white"/>
<path d="M119.36 39.32C117.253 39.32 115.213 39 113.24 38.36C111.293 37.6933 109.76 36.84 108.64 35.8L110.12 32.68C111.187 33.64 112.547 34.4267 114.2 35.04C115.88 35.6267 117.6 35.92 119.36 35.92C121.68 35.92 123.413 35.5333 124.56 34.76C125.707 33.96 126.28 32.9067 126.28 31.6C126.28 30.64 125.96 29.8667 125.32 29.28C124.707 28.6667 123.933 28.2 123 27.88C122.093 27.56 120.8 27.2 119.12 26.8C117.013 26.2933 115.307 25.7867 114 25.28C112.72 24.7733 111.613 24 110.68 22.96C109.773 21.8933 109.32 20.4667 109.32 18.68C109.32 17.1867 109.707 15.84 110.48 14.64C111.28 13.44 112.48 12.48 114.08 11.76C115.68 11.04 117.667 10.68 120.04 10.68C121.693 10.68 123.32 10.8933 124.92 11.32C126.52 11.7467 127.893 12.36 129.04 13.16L127.72 16.36C126.547 15.6133 125.293 15.0533 123.96 14.68C122.627 14.28 121.32 14.08 120.04 14.08C117.773 14.08 116.067 14.4933 114.92 15.32C113.8 16.1467 113.24 17.2133 113.24 18.52C113.24 19.48 113.56 20.2667 114.2 20.88C114.84 21.4667 115.627 21.9333 116.56 22.28C117.52 22.6 118.813 22.9467 120.44 23.32C122.547 23.8267 124.24 24.3333 125.52 24.84C126.8 25.3467 127.893 26.12 128.8 27.16C129.733 28.2 130.2 29.6 130.2 31.36C130.2 32.8267 129.8 34.1733 129 35.4C128.2 36.6 126.987 37.56 125.36 38.28C123.733 38.9733 121.733 39.32 119.36 39.32ZM162.004 17.6C164.67 17.6 166.777 18.3733 168.324 19.92C169.897 21.4667 170.684 23.76 170.684 26.8V39H166.844V27.24C166.844 25.1867 166.364 23.64 165.404 22.6C164.47 21.56 163.124 21.04 161.364 21.04C159.417 21.04 157.87 21.6533 156.724 22.88C155.577 24.08 155.004 25.8133 155.004 28.08V39H151.164V27.24C151.164 25.1867 150.684 23.64 149.724 22.6C148.79 21.56 147.444 21.04 145.684 21.04C143.737 21.04 142.19 21.6533 141.044 22.88C139.897 24.08 139.324 25.8133 139.324 28.08V39H135.484V17.8H139.164V20.96C139.937 19.8667 140.95 19.04 142.204 18.48C143.457 17.8933 144.884 17.6 146.484 17.6C148.137 17.6 149.604 17.9333 150.884 18.6C152.164 19.2667 153.15 20.24 153.844 21.52C154.644 20.2933 155.75 19.3333 157.164 18.64C158.604 17.9467 160.217 17.6 162.004 17.6ZM177.749 17.8H181.589V39H177.749V17.8ZM179.669 13.72C178.923 13.72 178.296 13.48 177.789 13C177.309 12.52 177.069 11.9333 177.069 11.24C177.069 10.5467 177.309 9.96 177.789 9.48C178.296 8.97333 178.923 8.72 179.669 8.72C180.416 8.72 181.029 8.96 181.509 9.44C182.016 9.89333 182.269 10.4667 182.269 11.16C182.269 11.88 182.016 12.4933 181.509 13C181.029 13.48 180.416 13.72 179.669 13.72ZM188.921 9.32H192.761V39H188.921V9.32ZM219.253 28.52C219.253 28.8133 219.226 29.2 219.173 29.68H201.973C202.213 31.5467 203.026 33.0533 204.413 34.2C205.826 35.32 207.573 35.88 209.653 35.88C212.186 35.88 214.226 35.0267 215.773 33.32L217.893 35.8C216.933 36.92 215.733 37.7733 214.293 38.36C212.88 38.9467 211.293 39.24 209.533 39.24C207.293 39.24 205.306 38.7867 203.573 37.88C201.84 36.9467 200.493 35.6533 199.533 34C198.6 32.3467 198.133 30.48 198.133 28.4C198.133 26.3467 198.586 24.4933 199.493 22.84C200.426 21.1867 201.693 19.9067 203.293 19C204.92 18.0667 206.746 17.6 208.773 17.6C210.8 17.6 212.6 18.0667 214.173 19C215.773 19.9067 217.013 21.1867 217.893 22.84C218.8 24.4933 219.253 26.3867 219.253 28.52ZM208.773 20.84C206.933 20.84 205.386 21.4 204.133 22.52C202.906 23.64 202.186 25.1067 201.973 26.92H215.573C215.36 25.1333 214.626 23.68 213.373 22.56C212.146 21.4133 210.613 20.84 208.773 20.84Z" fill="white"/>
<line x1="93" y1="1" x2="93" y2="78" stroke="white" stroke-width="2"/>
<defs>
<clipPath id="clip0_67_82">
<rect width="77" height="77" fill="white" transform="translate(0 1)"/>
</clipPath>
</defs>
</svg>
